HIERARCHY
ROOT hip
{
	OFFSET 0.000000 0.000000 0.000000 
	CHANNELS 6 Xposition Yposition Zposition Xrotation Zrotation Yrotation
	JOINT abdomen
	{
		OFFSET 0.000000 3.402643 0.000000 
		CHANNELS 3 Xrotation Zrotation Yrotation
		JOINT chest
		{
			OFFSET 0.000000 8.438565 -0.680529 
			CHANNELS 3 Xrotation Zrotation Yrotation
			JOINT neck
			{
				OFFSET 0.000000 10.207942 -0.272212 
				CHANNELS 3 Xrotation Zrotation Yrotation
				JOINT head
				{
					OFFSET 0.000000 3.130431 0.000000 
					CHANNELS 3 Xrotation Zrotation Yrotation
					End Site
					{
						OFFSET 0.000000 3.130435 0.000000 
					}
				}
			}
			JOINT lCollar
			{
				OFFSET 3.470700 6.669187 -0.816635 
				CHANNELS 3 Yrotation Zrotation Xrotation
				JOINT lShldr
				{
					OFFSET 3.198488 0.000000 0.000000 
					CHANNELS 3 Zrotation Yrotation Xrotation
					JOINT lForeArm
					{
						OFFSET 10.139888 0.000000 0.000000 
						CHANNELS 3 Yrotation Zrotation Xrotation
						JOINT lHand
						{
							OFFSET 8.370511 0.000000 0.000000 
							CHANNELS 3 Zrotation Yrotation Xrotation
							End Site
							{
								OFFSET 4.083176 0.000000 0.000000 
							}
						}
					}
				}
			}
			JOINT rCollar
			{
				OFFSET -3.470700 6.669187 -0.816635 
				CHANNELS 3 Yrotation Zrotation Xrotation
				JOINT rShldr
				{
					OFFSET -3.198488 0.000000 0.000000 
					CHANNELS 3 Zrotation Yrotation Xrotation
					JOINT rForeArm
					{
						OFFSET -10.139888 0.000000 0.000000 
						CHANNELS 3 Yrotation Zrotation Xrotation
						JOINT rHand
						{
							OFFSET -8.370511 0.000000 0.000000 
							CHANNELS 3 Zrotation Yrotation Xrotation
							End Site
							{
								OFFSET -4.083176 0.000000 0.000000 
							}
						}
					}
				}
			}
		}
	}
	JOINT lThigh
	{
		OFFSET 5.308129 -1.633274 1.361059 
		CHANNELS 3 Xrotation Zrotation Yrotation
		JOINT lShin
		{
			OFFSET -2.041588 -20.007561 0.000000 
			CHANNELS 3 Xrotation Zrotation Yrotation
			JOINT lFoot
			{
				OFFSET 0.000000 -19.190928 -1.224953 
				CHANNELS 3 Xrotation Yrotation Zrotation
				End Site
				{
					OFFSET 0.000000 -2.449906 4.627600 
				}
			}
		}
	}
	JOINT rThigh
	{
		OFFSET -5.308129 -1.633274 1.361059 
		CHANNELS 3 Xrotation Zrotation Yrotation
		JOINT rShin
		{
			OFFSET 2.041588 -20.007561 0.000000 
			CHANNELS 3 Xrotation Zrotation Yrotation
			JOINT rFoot
			{
				OFFSET 0.000000 -19.190928 -1.224953 
				CHANNELS 3 Xrotation Yrotation Zrotation
				End Site
				{
					OFFSET 0.000000 -2.449906 4.627600 
				}
			}
		}
	}
}
MOTION
Frames: 20
Frame Time: 0.033333
13.132071 43.930351 -53.324154 1.259772 -0.185502 -1.820517 21.113270 0.045087 0.101156 -20.839844 0.000000 0.000000 2.824430 -0.157998 3.864417 -2.520832 -1.255077 0.218355 -4.754609 -0.109184 -0.002653 -80.386078 -6.422995 53.464645 -4.520949 0.200727 1.613383 1.767008 -9.335776 0.066199 4.754609 0.109184 -0.002672 81.044556 1.524282 -7.331798 2.887758 -0.613111 32.464546 -0.725182 2.359594 -0.037190 6.518311 12.893433 5.684541 -5.446364 -3.502586 11.290424 1.261058 0.290034 -7.423244 5.428011 -8.377009 -7.478282 -4.170132 3.367990 -11.057815 -0.268140 -0.352913 4.140760 
12.954397 43.920197 -53.233257 1.474626 -0.273347 -1.559818 21.103561 0.122763 0.089270 -20.839844 0.000000 0.000000 3.108334 0.230598 3.918539 -2.520832 -1.255077 0.218355 -4.754609 -0.109184 -0.002653 -78.688751 -7.325855 53.046982 -3.476419 0.190711 1.111436 2.218640 -9.014066 0.043542 4.754609 0.109184 -0.002672 79.537491 2.250539 -7.824789 2.909225 -0.637680 34.368797 0.017504 2.808523 -0.021044 6.356248 13.201644 6.012448 -5.454949 -3.521533 10.862519 1.369756 0.284245 -7.443748 5.321429 -8.047080 -7.676964 -4.028852 3.375909 -11.028599 -0.562915 -0.346799 4.052089 
12.745733 43.900398 -53.131741 1.689485 -0.351410 -1.358081 21.103621 0.176577 0.057710 -20.839844 0.000000 0.000000 3.282659 0.722209 3.856183 -2.520832 -1.255077 0.218355 -4.754609 -0.109184 -0.002653 -77.204712 -7.999362 52.204723 -2.656155 0.160125 -0.687783 2.591848 -8.750908 0.024530 4.754609 0.109184 -0.002672 78.378296 3.192426 -7.913951 2.927980 -0.647374 35.863041 1.200227 3.198545 0.002737 6.209981 13.525133 6.164373 -5.456382 -3.531798 10.697146 1.419885 0.284827 -7.567143 5.220685 -7.699916 -7.617703 -3.904480 3.358122 -11.292475 -0.915007 -0.363153 3.997034 
12.525396 43.889229 -53.028164 1.914107 -0.390407 -1.263113 21.113384 0.177878 0.026842 -20.839844 0.000000 0.000000 3.242532 1.164486 3.803324 -2.520832 -1.255077 0.218355 -4.754609 -0.109184 -0.002653 -75.569435 -8.645923 50.859840 -2.647444 0.126400 -2.904325 2.344648 -8.144785 0.031983 4.754609 0.109184 -0.002672 77.614845 4.303548 -8.012739 2.951370 -0.672017 37.962734 1.983100 3.734956 0.032400 6.083343 13.817729 6.481459 -5.456288 -3.551182 10.444407 1.405172 0.292200 -7.876510 5.083311 -7.397167 -7.524415 -3.815814 3.346918 -11.481186 -1.241998 -0.378946 3.784383 
12.312170 43.892273 -52.915447 2.138706 -0.322041 -1.359738 21.123129 0.159648 0.019828 -20.839844 0.000000 0.000000 3.069545 1.343580 3.949592 -2.520832 -1.255077 0.218355 -4.754609 -0.109184 -0.002653 -74.142159 -8.960196 49.909924 -2.640246 0.090047 -5.247820 2.088315 -7.997697 0.047471 4.754609 0.109184 -0.002672 77.096352 5.181972 -7.849679 3.011682 -0.717239 42.845730 1.771503 4.993905 0.077793 6.034293 13.984043 6.975586 -5.464596 -3.560192 10.152617 1.369170 0.325357 -8.218699 4.927723 -7.192358 -7.195771 -3.815284 3.337018 -11.656496 -1.487149 -0.341950 3.381408 
12.117210 43.893806 -52.778896 2.353529 -0.195148 -1.541257 21.142630 0.125356 0.027559 -20.839844 0.000000 0.000000 2.907393 1.363566 4.155146 -2.520832 -1.255077 0.218355 -4.754609 -0.109184 -0.002653 -73.007759 -8.807654 49.287933 -2.632351 0.071224 -6.409803 2.148284 -8.593715 0.049384 4.754609 0.109184 -0.002672 76.769958 6.020902 -7.178328 3.093833 -0.768147 48.773788 0.835394 7.035354 0.102724 6.032824 14.039968 7.151390 -5.465384 -3.550796 10.259483 1.301814 0.321022 -8.294649 4.877572 -7.093533 -6.948169 -3.870855 3.335456 -11.582250 -1.713923 -0.327527 3.031883 
11.939522 43.885170 -52.604259 2.470704 -0.039026 -1.710675 21.191431 0.081947 0.031785 -20.839844 0.000000 0.000000 2.684536 1.320163 4.249707 -2.520832 -1.255077 0.218355 -4.754609 -0.109184 -0.002653 -71.910492 -8.371397 48.322769 -3.797282 0.090910 -5.655616 2.386418 -8.916819 0.030432 4.754609 0.109184 -0.002672 76.764328 7.113608 -5.924834 3.151057 -0.784004 52.748844 0.042854 9.800041 0.124958 6.171177 14.023209 7.514057 -5.465371 -3.560421 10.133110 1.218709 0.327351 -8.096801 5.023559 -7.033808 -7.158021 -3.981965 3.366652 -11.112699 -1.983798 -0.352618 2.908152 
11.778084 43.857246 -52.401684 2.529298 0.039024 -1.804910 21.250000 0.020357 0.028875 -20.839844 0.000000 0.000000 2.391068 1.204024 4.224012 -2.520832 -1.255077 0.218355 -4.754609 -0.109184 -0.002653 -70.947395 -7.614882 47.442390 -5.521348 0.108411 -4.356040 2.839722 -9.210640 0.011943 4.754609 0.109184 -0.002672 77.365761 2.441451 -2.655364 15.044538 -0.794513 53.154392 4.055171 9.633577 0.406526 6.434159 14.012315 8.500408 -5.469091 -3.610499 9.150432 1.146039 0.321739 -7.726167 5.243980 -6.953180 -7.166631 -4.043740 3.373576 -11.019969 -2.311222 -0.346351 2.902345 
11.658791 43.805458 -52.196590 2.636721 0.078042 -1.793268 21.289063 -0.032095 0.029410 -20.839844 0.000000 0.000000 2.039581 1.076739 4.228407 -2.520832 -1.255077 0.218355 -4.754609 -0.109184 -0.002653 -70.095184 -6.607328 46.533623 -7.541974 0.118961 -3.292489 3.204067 -9.308928 -0.005421 4.754609 0.109184 -0.002672 77.438141 -3.235174 2.000935 29.187424 -1.236719 52.891720 8.451687 9.302636 -0.180527 6.547359 13.997224 8.992129 -5.485985 -3.627455 8.575937 1.373402 0.262867 -6.838237 5.364962 -6.877204 -6.604423 -4.041497 3.338976 -11.613461 -2.625931 -0.343314 2.895142 
11.597374 43.737434 -51.970150 2.714855 0.165829 -1.583905 21.318382 -0.109670 0.041043 -20.839844 0.000000 0.000000 1.918932 0.752882 4.041674 -2.520832 -1.255077 0.218355 -4.754609 -0.109184 -0.002653 -69.582047 -5.812244 45.712498 -9.322193 0.146097 -2.067845 3.037802 -9.465079 0.000125 4.754609 0.109184 -0.002672 76.991425 -7.002733 4.917444 39.291744 -1.263278 53.063423 10.910897 10.249470 0.399853 6.100965 13.873101 9.039954 -4.548193 -3.589110 8.976084 1.824621 0.182102 -5.695752 5.602166 -6.929904 -6.005569 -4.090829 3.299341 -12.493795 -2.872003 -0.372418 2.916485 
11.609032 43.657219 -51.702618 2.763699 0.253611 -1.071699 21.347723 -0.174650 0.047040 -20.839844 0.000000 0.000000 2.057360 0.527966 3.612529 -2.520832 -1.255077 0.218355 -4.754609 -0.109184 -0.002653 -69.487106 -5.631824 45.501019 -10.253053 0.160155 -0.818651 2.330595 -9.854761 0.034890 4.754609 0.109184 -0.002672 76.335373 -9.626741 7.577272 46.570560 -1.255828 52.458378 11.669092 11.204987 0.723604 6.032257 13.394723 9.661498 -4.363409 -3.355330 10.806285 3.153735 0.100465 -5.577398 5.992603 -7.037819 -5.718867 -4.135942 3.249063 -13.353952 -3.123681 -0.383572 3.029677 
11.720726 43.567360 -51.391918 2.734402 0.253617 -0.173391 21.367325 -0.236146 0.043889 -20.839844 0.000000 0.000000 2.305514 0.700812 2.815542 -2.520832 -1.255077 0.218355 -4.754609 -0.109184 -0.002653 -69.779938 -5.942807 45.912830 -10.409798 0.178643 0.511712 1.314890 -10.272676 0.099590 4.754609 0.109184 -0.002672 75.856010 -11.044512 10.137506 50.283772 -1.195204 49.200691 10.597070 11.079240 0.690313 6.258615 12.509233 10.949706 -4.733925 -2.886962 14.126833 4.399118 0.071140 -6.944745 6.619971 -7.118231 -6.277974 -4.130287 3.231178 -13.743134 -3.416762 -0.411687 3.262992 
11.907539 43.472923 -51.000988 2.421892 0.214652 1.317709 21.406542 -0.304026 -0.024838 -20.839844 0.000000 0.000000 2.766304 1.691434 0.992269 -2.520832 -1.255077 0.218355 -4.754609 -0.109184 -0.002653 -70.553322 -6.533686 46.933357 -10.162798 0.198728 1.791155 0.437150 -10.632376 0.152615 4.754609 0.109184 -0.002672 76.279976 -11.693062 11.622583 50.350883 -1.054803 43.605289 7.758760 9.752481 0.361003 6.586252 11.293193 12.324389 -5.353704 -2.536468 17.526279 4.674833 0.057076 -7.426589 7.739619 -7.144873 -7.264729 -4.052490 3.211581 -14.147043 -3.849797 -0.461291 3.636802 
12.140556 43.371902 -50.498394 1.699221 0.097613 3.508771 21.465487 -0.432764 -0.180729 -20.839844 0.000000 0.000000 3.324347 3.645434 -2.117981 -2.520832 -1.255077 0.218355 -4.754609 -0.109184 -0.002653 -71.699120 -7.150425 48.783024 -9.836617 0.211239 2.743333 0.139916 -10.758547 0.176312 4.754609 0.109184 -0.002672 78.213669 -12.707820 11.385822 48.568161 -0.897992 37.546593 3.782403 6.836711 -0.081398 3.785795 10.952675 13.426907 0.925346 -2.484030 18.083521 0.719926 0.298877 -6.119353 9.406851 -7.056294 -7.965970 -3.734385 3.150527 -15.363129 -4.210795 -0.511288 4.211756 
12.455359 43.246002 -49.904400 0.664063 -0.029295 6.288718 21.582834 -0.515172 -0.403389 -20.839844 0.000000 0.000000 3.714994 5.948142 -5.975111 -2.520832 -1.255077 0.218355 -4.754609 -0.109184 -0.002653 -73.325073 -7.464979 51.548264 -9.581288 0.218465 3.065922 0.940544 -10.672461 0.123427 4.754609 0.109184 -0.002672 80.217224 -16.361082 10.958115 49.299923 -0.745924 31.744438 0.329960 1.871665 -0.328529 3.638070 10.803474 14.415044 3.138930 -2.718205 16.498505 -1.692887 0.259304 -3.573362 11.262415 -6.988873 -8.082986 -2.878592 3.044366 -17.517967 -3.264660 -0.572473 5.381076 
12.868078 43.088100 -49.254574 -0.400396 0.302727 9.626790 21.778105 -0.615855 -0.687759 -20.839844 0.000000 0.000000 3.551783 7.803725 -10.061557 -2.520832 -1.255077 0.218355 -4.754609 -0.109184 -0.002653 -75.306297 -7.525545 54.845039 -9.930285 0.220785 3.403661 2.609548 -10.568581 0.020087 4.754609 0.109184 -0.002672 79.893051 -25.486589 11.397611 57.701252 -0.575473 25.420618 1.514540 -3.324806 -0.389057 4.499091 10.680455 13.291214 4.259726 -2.951764 14.488638 -3.719419 0.371563 -3.821178 8.544013 -7.919390 -8.787591 7.415049 2.570442 -18.469315 -2.746113 -0.828020 8.221244 
13.349890 42.843410 -48.612366 -0.898593 1.064322 13.079013 21.953876 -0.764931 -0.982175 -20.839844 0.000000 0.000000 2.513149 8.488152 -13.594176 -2.520832 -1.255077 0.218355 -4.754609 -0.109184 -0.002653 -76.222115 -7.323845 56.226891 -12.852541 0.264968 6.455299 4.313782 -10.093126 -0.075494 4.754609 0.109184 -0.002672 77.713768 -39.357460 10.781249 72.152184 -0.410579 18.885199 7.848034 -4.565801 -0.659357 3.562060 10.309502 9.716097 7.861791 -2.965179 13.734434 -6.559907 0.634472 -5.279226 1.501949 -9.816619 -6.930445 23.624937 2.133282 -19.194939 1.074465 -1.779987 9.409925 
13.830648 42.491070 -48.006195 -0.664335 1.640515 15.957552 22.022125 -0.871834 -1.195302 -20.839844 0.000000 0.000000 1.223606 7.645278 -15.393864 -2.520832 -1.255077 0.218355 -4.754609 -0.109184 -0.002653 -74.875435 -6.389815 53.323006 -19.847755 0.235204 13.234381 5.546451 -8.817381 -0.199695 4.754609 0.109184 -0.002672 77.755043 -54.912922 5.514388 87.018761 -0.353941 16.326792 13.888709 -0.929579 -0.419491 1.121891 9.839804 7.191743 13.160701 -2.920479 12.307269 -9.910066 0.975912 -6.257847 -6.102190 -12.583432 -8.248240 37.337681 1.990087 -14.541323 7.925339 -0.707189 4.753062 
14.262688 42.104733 -47.462463 -0.058626 1.894530 17.869156 22.011993 -0.900556 -1.311997 -20.839844 0.000000 0.000000 0.273166 5.578220 -15.021508 -2.520832 -1.255077 0.218355 -4.754609 -0.109184 -0.002653 -71.815918 -3.950914 46.779114 -30.150700 -0.077992 20.580128 5.444689 -7.204706 -1.350427 4.754609 0.109184 -0.002672 90.823242 -68.681366 -16.419823 100.000107 -0.549092 21.972448 17.912695 7.849129 1.089680 -1.113465 9.698710 6.984356 17.705082 -2.977763 9.610261 -12.732339 1.399885 -6.971392 -13.847402 -15.595162 -8.304185 47.839947 1.962549 -7.283847 10.454115 -0.392082 1.253689 
14.620064 41.757473 -47.037033 0.908736 1.962644 18.752146 21.952068 -0.825260 -1.427425 -20.839844 0.000000 0.000000 -1.117456 3.060588 -13.286560 -2.520832 -1.255077 0.218355 -4.754609 -0.109184 -0.002653 -68.762878 0.132281 39.861893 -41.137917 -0.060803 20.273054 3.731216 -6.200578 -0.823804 4.754609 0.109184 -0.002672 121.786400 -70.067909 -61.890617 108.895370 -0.892406 33.340824 20.085840 22.573772 4.226570 -3.036656 9.674380 7.818309 20.955925 -3.097501 7.404891 -14.778945 1.638819 -7.613947 -21.501894 -17.820326 -5.395816 53.562023 1.864919 -3.622892 8.293611 -0.295393 1.761877 
